<svg width="64" height="64" viewBox="0 0 64 64" fill="none" xmlns="http://www.w3.org/2000/svg">
  <circle cx="32" cy="32" r="30" fill="#FFF3E0"/>
  <circle cx="18" cy="30" r="6" fill="#FFB300"/>
  <circle cx="46" cy="30" r="6" fill="#FFB300"/>
  <circle cx="32" cy="34" r="10" fill="#FFDCB9"/>
  <path d="M32 24C28 24 24 26 24 30L26 34C26 29 29 26 32 26C35 26 38 29 38 34L40 30C40 26 36 24 32 24Z" fill="#FFB300"/>
  <path d="M32 46C26 46 22 49 22 54V58H42V54C42 49 38 46 32 46Z" fill="#FFA726"/>
</svg>