<svg width="64" height="64" viewBox="0 0 64 64" fill="none" xmlns="http://www.w3.org/2000/svg">
  <circle cx="32" cy="32" r="30" fill="#E3F2FD"/>
  <circle cx="32" cy="30" r="12" fill="#FFDCB9"/>
  <path d="M32 18C26.4771 18 22 21.5817 22 26C22 26.8634 22.1719 27.6856 22.4868 28.4496C23.9233 23.4625 27.6448 20 32 20C36.3552 20 40.0767 23.4625 41.5132 28.4496C41.8281 27.6856 42 26.8634 42 26C42 21.5817 37.5228 18 32 18Z" fill="#5D4037"/>
  <path d="M32 44C24 44 18 48 18 54V58H46V54C46 48 40 44 32 44Z" fill="#1976D2"/>
  <path d="M32 44L34 54H30L32 44Z" fill="#0D47A1"/>
</svg>