<svg width="64" height="64" viewBox="0 0 64 64" fill="none" xmlns="http://www.w3.org/2000/svg">
  <circle cx="32" cy="32" r="30" fill="#FCE4EC"/>

  <path d="M20 30C20 22 25.5 18 32 18C38.5 18 44 22 44 30V40C44 45 41 49 37 51H27C23 49 20 45 20 40V30Z" fill="#8D6E63"/>
  <path d="M24 30C24 26 27 24 32 24C37 24 40 26 40 30V41C40 44 38.5 47 36.2 49.2H27.8C25.5 47 24 44 24 41V30Z" fill="#7B5F57" fill-opacity="0.25"/>

  <circle cx="32" cy="32" r="11" fill="#FFDCB9"/>

  <path d="M43 30C43 23 38 19 32 19C26 19 21 23 21 30V34C23 29 27 26 32 26C37 26 41 29 43 34V30Z" fill="#8D6E63"/>

  <path d="M32 45C25 45 20 49 20 54V58H44V54C44 49 39 45 32 45Z" fill="#EC407A"/>
</svg>