<svg width="64" height="64" viewBox=" 0 64 64" fill="none" xmlns="http://www.w3.org/2000/svg">
  <circle cx="32" cy="32" r="30" fill="#ECEFF1"/>

  <g transform="translate(0, 5) scale(0.7)">
    <circle cx="32" cy="30" r="12" fill="#FFDCB9"/>
    <path d="M32 18C26.4771 18 22 21.5817 22 26C22 26.8634 22.1719 27.6856 22.4868 28.4496C23.9233 23.4625 27.6448 20 32 20C36.3552 20 40.0767 23.4625 41.5132 28.4496C41.8281 27.6856 42 26.8634 42 26C42 21.5817 37.5228 18 32 18Z" fill="#5D4037"/>
    <path d="M32 44C24 44 18 48 18 54V58H46V54C46 48 40 44 32 44Z" fill="#1976D2"/>
    <path d="M32 44L34 54H30L32 44Z" fill="#0D47A1"/>
  </g>

  <g transform="translate(17, 5) scale(0.7)">
    <path d="M20 30C20 22 25.5 18 32 18C38.5 18 44 22 44 30V40C44 45 41 49 37 51H27C23 49 20 45 20 40V30Z" fill="#8D6E63"/>
    <path d="M24 30C24 26 27 24 32 24C37 24 40 26 40 30V41C40 44 38.5 47 36.2 49.2H27.8C25.5 47 24 44 24 41V30Z" fill="#7B5F57" fill-opacity="0.25"/>
    <circle cx="32" cy="32" r="11" fill="#FFDCB9"/>
    <path d="M43 30C43 23 38 19 32 19C26 19 21 23 21 30V34C23 29 27 26 32 26C37 26 41 29 43 34V30Z" fill="#8D6E63"/>
    <path d="M32 45C25 45 20 49 20 54V58H44V54C44 49 39 45 32 45Z" fill="#EC407A"/>
  </g>
</svg>